# xmcd
# Copyright (C) 1995-1998 Ti Kan
#
# Track frame offsets:
#       150
#       18707
#       35475
#       50925
#       67575
#       83325
#       96675
#       105792
#       123600
#       140600
#       155700
#       173025
#       193200
#
# Disc length: 2844 seconds
#
# Revision: 0
# Processed by: cddbd v1.5.2PL0 Copyright (c) Steve Scherf et al.
# Submitted via: CD-Transfer v1.0
#
DISCID=b30b1a0d
DTITLE=Junior Tshaka - La Jungle
DYEAR=06
DGENRE=
TTITLE0=Dada Wa
TTITLE1=Le Silence Est D'or
TTITLE2=Laisez-Nous Respirer
TTITLE3=Esclavagissime
TTITLE4=Il Est Seul Et Il Marche
TTITLE5=Trop D'enfants Pleurent
TTITLE6=Mais C'est...
TTITLE7=La Jungle
TTITLE8=La Lune
TTITLE9=Pang Pang
TTITLE10=Ils Nous Mentent
TTITLE11=Pourquoi Ces Nuages
TTITLE12=Mes Morceaux
EXTD=
EXTT0=
EXTT1=
EXTT2=
EXTT3=
EXTT4=
EXTT5=
EXTT6=
EXTT7=
EXTT8=
EXTT9=
EXTT10=
EXTT11=
EXTT12=
PLAYORDER=
